<svg width="23" height="17" viewBox="0 0 23 17" fill="none" xmlns="http://www.w3.org/2000/svg">
<g id="Georgia (GE)" clip-path="url(#clip0_636_5174)">
<path id="Vector" d="M0.444336 0.120117H22.8824V16.9487H0.444336V0.120117Z" fill="white"/>
<path id="Vector_2" d="M9.98047 0.120117H13.3462V16.9487H9.98047V0.120117Z" fill="#FF0000"/>
<path id="Vector_3" d="M0.444336 6.85156H22.8824V10.2173H0.444336V6.85156Z" fill="#FF0000"/>
<g id="Vector_4" style="mix-blend-mode:multiply">
<path fill-rule="evenodd" clip-rule="evenodd" d="M5.59137 13.2007C5.62643 12.6117 5.73161 12.1103 5.73161 12.1103C5.73161 12.1103 5.38803 12.1454 5.21273 12.1454C5.04094 12.1454 4.69385 12.1103 4.69385 12.1103C4.69385 12.1103 4.79903 12.6117 4.83409 13.2042C4.24158 13.1691 3.74023 13.0639 3.74023 13.0639C3.74023 13.0639 3.77529 13.3234 3.77529 13.5828C3.77529 13.8423 3.74023 14.1017 3.74023 14.1017C3.74023 14.1017 4.24158 13.9965 4.83409 13.9615C4.79903 14.554 4.69385 15.0553 4.69385 15.0553C4.69385 15.0553 4.95329 15.0203 5.21273 15.0203C5.47217 15.0203 5.73161 15.0553 5.73161 15.0553C5.73161 15.0553 5.62643 14.554 5.59137 13.9615C6.18388 13.9965 6.68523 14.1017 6.68523 14.1017C6.68523 14.1017 6.65017 13.7581 6.65017 13.5828C6.65017 13.411 6.68523 13.0639 6.68523 13.0639C6.68523 13.0639 6.18388 13.1691 5.59488 13.2042L5.59137 13.2007ZM18.4933 3.10353C18.5283 2.51453 18.6335 2.01318 18.6335 2.01318C18.6335 2.01318 18.2899 2.04824 18.1146 2.04824C17.9428 2.04824 17.5957 2.01318 17.5957 2.01318C17.5957 2.01318 17.7009 2.51453 17.736 3.10353C17.1435 3.06847 16.6421 2.9668 16.6421 2.9668C16.6421 2.9668 16.6772 3.22624 16.6772 3.48568C16.6772 3.74512 16.6421 4.00456 16.6421 4.00456C16.6421 4.00456 17.1435 3.89938 17.736 3.86432C17.7009 4.45683 17.5957 4.95818 17.5957 4.95818C17.5957 4.95818 17.8552 4.92312 18.1146 4.92312C18.3741 4.92312 18.6335 4.95818 18.6335 4.95818C18.6335 4.95818 18.5283 4.45683 18.4933 3.86783C19.0858 3.90289 19.5871 4.00807 19.5871 4.00807C19.5871 4.00807 19.5521 3.65747 19.5521 3.48568C19.5521 3.31389 19.5871 2.9668 19.5871 2.9668C19.5871 2.9668 19.0858 3.07198 18.4933 3.10704V3.10353ZM5.59137 3.10353C5.62643 2.51453 5.73161 2.01318 5.73161 2.01318C5.73161 2.01318 5.38803 2.04824 5.21273 2.04824C5.04094 2.04824 4.69385 2.01318 4.69385 2.01318C4.69385 2.01318 4.79903 2.51453 4.83409 3.10704C4.24158 3.07198 3.74023 2.9668 3.74023 2.9668C3.74023 2.9668 3.77529 3.22624 3.77529 3.48568C3.77529 3.74512 3.74023 4.00456 3.74023 4.00456C3.74023 4.00456 4.24158 3.89938 4.83409 3.86432C4.79903 4.45683 4.69385 4.95818 4.69385 4.95818C4.69385 4.95818 4.95329 4.92312 5.21273 4.92312C5.47217 4.92312 5.73161 4.95818 5.73161 4.95818C5.73161 4.95818 5.62643 4.45683 5.59137 3.86432C6.18388 3.89938 6.68523 4.00456 6.68523 4.00456C6.68523 4.00456 6.65017 3.66098 6.65017 3.48568C6.65017 3.31389 6.68523 2.9668 6.68523 2.9668C6.68523 2.9668 6.18388 3.07198 5.59488 3.10704L5.59137 3.10353ZM18.4933 13.2007C18.5283 12.6117 18.6335 12.1103 18.6335 12.1103C18.6335 12.1103 18.2899 12.1454 18.1146 12.1454C17.9428 12.1454 17.5957 12.1103 17.5957 12.1103C17.5957 12.1103 17.7009 12.6117 17.736 13.2042C17.1435 13.1691 16.6421 13.0639 16.6421 13.0639C16.6421 13.0639 16.6772 13.3234 16.6772 13.5828C16.6772 13.8423 16.6421 14.1017 16.6421 14.1017C16.6421 14.1017 17.1435 13.9965 17.736 13.9615C17.7009 14.554 17.5957 15.0553 17.5957 15.0553C17.5957 15.0553 17.8552 15.0203 18.1146 15.0203C18.3741 15.0203 18.6335 15.0553 18.6335 15.0553C18.6335 15.0553 18.5283 14.554 18.4933 13.9615C19.0858 13.9965 19.5871 14.1017 19.5871 14.1017C19.5871 14.1017 19.5521 13.7581 19.5521 13.5828C19.5521 13.411 19.5871 13.0639 19.5871 13.0639C19.5871 13.0639 19.0858 13.1691 18.4933 13.2042V13.2007Z" fill="#FF0000"/>
</g>
</g>
<defs>
<clipPath id="clip0_636_5174">
<rect width="22.4381" height="16.8285" fill="white" transform="translate(0.444336 0.120117)"/>
</clipPath>
</defs>
</svg>
