<svg width="21" height="16" viewBox="0 0 21 16" fill="none" xmlns="http://www.w3.org/2000/svg">
<g id="United Kingdom (GB)" clip-path="url(#clip0_636_16706)">
<path id="Vector" d="M0 0.125H21V15.875H0V0.125Z" fill="#012169"/>
<path id="Vector_2" d="M2.46094 0.125L10.4672 6.06407L18.4407 0.125H21V2.15938L13.125 8.03282L21 13.8735V15.875H18.375L10.5 10.0016L2.65782 15.875H0V13.9063L7.8422 8.06564L0 2.225V0.125H2.46094Z" fill="white"/>
<path id="Vector_3" d="M13.9125 9.34533L21 14.5625V15.875L12.1078 9.34533H13.9125ZM7.87501 10.0016L8.07189 11.15L1.77188 15.875H0L7.87501 10.0016ZM21 0.125V0.223438L12.8297 6.3922L12.8953 4.94844L19.3594 0.125H21ZM0 0.125L7.8422 5.90001H5.87345L0 1.50313V0.125Z" fill="#C8102E"/>
<path id="Vector_4" d="M7.90782 0.125V15.875H13.1578V0.125H7.90782ZM0 5.37501V10.625H21V5.37501H0Z" fill="white"/>
<path id="Vector_5" d="M0 6.45782V9.60783H21V6.45782H0ZM8.95783 0.125V15.875H12.1078V0.125H8.95783Z" fill="#C8102E"/>
</g>
<defs>
<clipPath id="clip0_636_16706">
<rect width="21" height="15.75" fill="white" transform="translate(0 0.125)"/>
</clipPath>
</defs>
</svg>
