<svg width="64" height="64" viewBox="0 0 64 64" fill="none" xmlns="http://www.w3.org/2000/svg">
<circle cx="32" cy="32" r="31.5" stroke="#ffffff99"/>
<g clip-path="url(#clip0_301_51182)">
<path d="M33.8931 26C35.2643 26 36.6355 26 38.0068 26C38.0068 26.8267 38.0068 27.6534 38.0068 28.48C37.9937 28.6441 37.9674 28.8015 37.9674 28.9656C37.9543 31.5834 37.9477 34.2078 37.9346 36.8256C37.9346 36.9502 37.9346 37.0749 37.9346 37.2258C37.0817 37.2258 36.2681 37.2258 35.4349 37.2258C35.4349 34.936 35.4349 32.6594 35.4349 30.3302C34.2146 31.5571 33.027 32.7381 31.846 33.9256C30.5863 35.1853 29.3266 36.4516 28.0604 37.7048C27.6602 38.105 27.3387 38.0984 26.9384 37.7048C26.7547 37.5211 26.571 37.3373 26.3873 37.1536C25.8756 36.6419 25.8756 36.3794 26.3808 35.8742C28.723 33.5254 31.0653 31.1832 33.4076 28.8343C33.4863 28.7556 33.5585 28.6703 33.67 28.5522C31.3277 28.5522 29.0445 28.5522 26.781 28.5522C26.781 27.7124 26.781 26.9054 26.781 26.0722C26.9188 26.0722 27.0172 26.0722 27.1156 26.0722C28.8214 26.0656 30.5273 26.059 32.2331 26.0459C32.7908 26.0394 33.3419 26.0131 33.8931 26Z" fill="#ffffff99"/>
</g>
<defs>
<clipPath id="clip0_301_51182">
<rect width="12" height="12" fill="white" transform="translate(26 26)"/>
</clipPath>
</defs>
</svg>
