<svg width="35" height="35" viewBox="0 0 35 35" fill="none" xmlns="http://www.w3.org/2000/svg">
<g id="Group 241">
<path id="Vector" d="M32.9023 34.3652H26.5992L15.1221 12.0459H21.4251L32.9023 34.3652Z" fill="#19002D"/>
<path id="Vector_2" d="M32.9032 12.0693H19.9443V17.1964H32.9032V12.0693Z" fill="#19002D"/>
<path id="Vector_3" d="M17.2392 28.1324C16.8865 29.1672 16.4161 30.155 15.8046 31.0723C14.7227 32.695 13.2646 34.0356 11.5712 34.9999L8.89008 29.8963C10.2542 29.0967 11.289 27.8031 11.7829 26.2979C12.0181 25.5924 12.1357 24.8633 12.1357 24.1107C12.1357 23.0524 11.8535 22.0175 11.3831 21.0768C10.8892 20.136 10.1836 19.3364 9.31343 18.7249C8.34916 18.0664 7.24378 17.643 6.09136 17.549C4.93894 17.4549 3.763 17.643 2.70466 18.1369L0 13.0334C2.18724 11.9515 4.65672 11.5517 7.10266 11.8574C9.5251 12.1632 11.8064 13.198 13.6644 14.8208C15.4989 16.4436 16.8394 18.5603 17.4744 20.9121C18.1094 23.264 18.0389 25.8041 17.2392 28.1324Z" fill="#19002D"/>
<path id="Vector_12" d="M18.3452 5.34242C18.3452 7.92948 16.2286 10.0462 13.6415 10.0462C11.0544 10.0462 8.93774 7.92948 8.93774 5.34242C8.93774 2.75536 11.0544 0.638672 13.6415 0.638672C16.2286 0.638672 18.3452 2.75536 18.3452 5.34242Z" fill="#19002D"/>
</g>
</svg>
