<svg width="180" height="35" viewBox="0 0 180 35" fill="none" xmlns="http://www.w3.org/2000/svg">
<g id="Group 241">
<path id="Vector" d="M32.9023 34.3652H26.5992L15.1221 12.0459H21.4251L32.9023 34.3652Z" fill="#19002D"/>
<path id="Vector_2" d="M32.9032 12.0693H19.9443V17.1964H32.9032V12.0693Z" fill="#19002D"/>
<path id="Vector_3" d="M17.2392 28.1324C16.8865 29.1672 16.4161 30.155 15.8046 31.0723C14.7227 32.695 13.2646 34.0356 11.5712 34.9999L8.89008 29.8963C10.2542 29.0967 11.289 27.8031 11.7829 26.2979C12.0181 25.5924 12.1357 24.8633 12.1357 24.1107C12.1357 23.0524 11.8535 22.0175 11.3831 21.0768C10.8892 20.136 10.1836 19.3364 9.31343 18.7249C8.34916 18.0664 7.24378 17.643 6.09136 17.549C4.93894 17.4549 3.763 17.643 2.70466 18.1369L0 13.0334C2.18724 11.9515 4.65672 11.5517 7.10266 11.8574C9.5251 12.1632 11.8064 13.198 13.6644 14.8208C15.4989 16.4436 16.8394 18.5603 17.4744 20.9121C18.1094 23.264 18.0389 25.8041 17.2392 28.1324Z" fill="#19002D"/>
<path id="Vector_4" d="M60.4662 28.4618C58.7729 30.2257 56.6797 31.1194 54.1867 31.1194C51.6937 31.1194 49.6006 30.2257 47.9072 28.4618C46.2139 26.6978 45.3672 24.4636 45.3672 21.7589C45.3672 19.0543 46.2139 16.82 47.9072 15.0561C49.6006 13.2922 51.6937 12.3984 54.1867 12.3984C56.6797 12.3984 58.7729 13.2922 60.4662 15.0561C62.1596 16.82 63.0062 19.0543 63.0062 21.7589C63.0062 24.4636 62.1596 26.6978 60.4662 28.4618ZM50.8235 25.616C51.7173 26.5802 52.8461 27.0741 54.1867 27.0741C55.5273 27.0741 56.6327 26.5802 57.5029 25.616C58.3966 24.6282 58.8434 23.3346 58.8434 21.7354C58.8434 20.1361 58.3966 18.8661 57.5029 17.8783C56.6092 16.8905 55.5038 16.3966 54.1867 16.3966C52.8697 16.3966 51.7408 16.8905 50.8235 17.8783C49.9298 18.8426 49.5065 20.1361 49.5065 21.7354C49.5065 23.3582 49.9298 24.6282 50.8235 25.616Z" fill="#19002D"/>
<path id="Vector_5" d="M69.122 30.8374V16.679H64.0654V12.6573H78.3648V16.679H73.3083V30.8374H69.122Z" fill="#19002D"/>
<path id="Vector_6" d="M79.1406 24.8634H83.3034C83.3034 25.616 83.6092 26.251 84.1972 26.7449C84.7851 27.2388 85.6083 27.474 86.6901 27.474C87.725 27.474 88.5011 27.2858 89.0185 26.933C89.5359 26.5803 89.7946 26.1099 89.7946 25.5219C89.7946 25.028 89.6065 24.6282 89.2066 24.3224C88.8303 24.0167 88.1483 23.758 87.2075 23.5698L84.3383 23.0524C82.7155 22.7467 81.4925 22.2057 80.6929 21.3826C79.9167 20.5594 79.5169 19.407 79.5169 17.9724C79.5169 16.3731 80.1284 15.0325 81.3279 13.9742C82.5508 12.9158 84.2442 12.3984 86.3844 12.3984C88.7127 12.3984 90.5472 12.9629 91.8407 14.1153C93.1343 15.2677 93.7928 16.7729 93.7928 18.6309H89.63C89.63 17.8783 89.3242 17.2668 88.7363 16.7964C88.1483 16.3025 87.3487 16.0438 86.3609 16.0438C85.4672 16.0438 84.8086 16.232 84.3383 16.6083C83.8679 16.9611 83.6327 17.4315 83.6327 17.9959C83.6327 18.4663 83.7973 18.8191 84.1031 19.0778C84.4323 19.313 85.0203 19.5246 85.8435 19.6657L88.7127 20.1831C90.5237 20.5124 91.8407 21.1004 92.6639 21.9235C93.4871 22.7467 93.9104 23.9461 93.9104 25.4984C93.9104 27.1212 93.2754 28.4618 92.0054 29.5201C90.7354 30.5549 88.9479 31.0723 86.6196 31.0723C84.2912 31.0723 82.4567 30.4844 81.1162 29.3084C79.7991 28.156 79.1406 26.6743 79.1406 24.8634Z" fill="#19002D"/>
<path id="Vector_7" d="M96.8037 30.8374V12.6573H105.247C107.011 12.6573 108.445 13.2453 109.551 14.3977C110.656 15.5502 111.221 17.1024 111.221 19.0309C111.221 20.9595 110.68 22.4882 109.551 23.6641C108.445 24.8166 107.011 25.4045 105.247 25.4045H100.967V30.8609H96.8037V30.8374ZM100.943 21.3593H104.965C105.576 21.3593 106.07 21.1476 106.446 20.7243C106.846 20.301 107.034 19.713 107.034 19.0074C107.034 18.3018 106.846 17.7374 106.446 17.3141C106.07 16.8907 105.576 16.6555 104.965 16.6555H100.943V21.3593Z" fill="#19002D"/>
<path id="Vector_8" d="M128.295 28.4618C126.602 30.2257 124.509 31.1194 122.016 31.1194C119.523 31.1194 117.43 30.2257 115.736 28.4618C114.043 26.6978 113.196 24.4636 113.196 21.7589C113.196 19.0543 114.043 16.82 115.736 15.0561C117.43 13.2922 119.523 12.3984 122.016 12.3984C124.509 12.3984 126.602 13.2922 128.295 15.0561C129.989 16.82 130.835 19.0543 130.835 21.7589C130.835 24.4636 129.989 26.6978 128.295 28.4618ZM118.653 25.616C119.546 26.5802 120.675 27.0741 121.992 27.0741C123.333 27.0741 124.438 26.5802 125.332 25.616C126.226 24.6282 126.673 23.3346 126.673 21.7354C126.673 20.1361 126.226 18.8661 125.332 17.8783C124.438 16.8905 123.333 16.3966 121.992 16.3966C120.652 16.3966 119.546 16.8905 118.653 17.8783C117.759 18.8426 117.336 20.1361 117.336 21.7354C117.336 23.3582 117.759 24.6282 118.653 25.616Z" fill="#19002D"/>
<path id="Vector_9" d="M133.703 30.8372V12.6572H142.287C144.051 12.6572 145.486 13.2217 146.591 14.3741C147.697 15.5265 148.261 17.0317 148.261 18.8897C148.261 21.1945 147.415 22.8644 145.721 23.8992C144.945 24.3461 144.098 24.6283 143.205 24.7224L148.802 30.8372H143.605L138.407 24.9811H137.889V30.8372H133.703ZM137.842 21.2416H142.005C142.617 21.2416 143.111 21.0299 143.487 20.6066C143.887 20.1832 144.075 19.5953 144.075 18.8897C144.075 18.1841 143.887 17.6197 143.487 17.1964C143.111 16.773 142.617 16.5378 142.005 16.5378H137.842V21.2416Z" fill="#19002D"/>
<path id="Vector_10" d="M154.612 30.8372V16.6789H149.532V12.6572H163.832V16.6789H158.775V30.8372H154.612Z" fill="#19002D"/>
<path id="Vector_11" d="M164.632 24.8634H168.795C168.795 25.616 169.077 26.251 169.688 26.7449C170.276 27.2388 171.099 27.474 172.181 27.474C173.216 27.474 173.992 27.2858 174.51 26.933C175.027 26.5803 175.286 26.1099 175.286 25.5219C175.286 25.028 175.098 24.6282 174.698 24.3224C174.322 24.0167 173.663 23.758 172.699 23.5698L169.829 23.0524C168.207 22.7467 166.984 22.2057 166.184 21.3826C165.408 20.5594 165.008 19.407 165.008 17.9724C165.008 16.3731 165.62 15.0325 166.819 13.9742C168.042 12.9158 169.735 12.3984 171.876 12.3984C174.204 12.3984 176.038 12.9629 177.332 14.1153C178.625 15.2677 179.284 16.7729 179.284 18.6309H175.145C175.145 17.8783 174.862 17.2668 174.251 16.7964C173.663 16.3025 172.863 16.0438 171.876 16.0438C170.982 16.0438 170.323 16.232 169.853 16.6083C169.383 16.9611 169.147 17.4315 169.147 17.9959C169.147 18.4663 169.312 18.8191 169.618 19.0778C169.947 19.313 170.535 19.5246 171.358 19.6657L174.227 20.1831C176.038 20.5124 177.355 21.1004 178.179 21.9235C179.002 22.7467 179.425 23.9461 179.425 25.4984C179.425 27.1212 178.79 28.4618 177.52 29.5201C176.25 30.5549 174.463 31.0723 172.134 31.0723C169.806 31.0723 167.971 30.4844 166.631 29.3084C165.314 28.156 164.632 26.6743 164.632 24.8634Z" fill="#19002D"/>
<path id="Vector_12" d="M18.3452 5.34242C18.3452 7.92948 16.2286 10.0462 13.6415 10.0462C11.0544 10.0462 8.93774 7.92948 8.93774 5.34242C8.93774 2.75536 11.0544 0.638672 13.6415 0.638672C16.2286 0.638672 18.3452 2.75536 18.3452 5.34242Z" fill="#19002D"/>
</g>
</svg>
