<svg width="164" height="164" viewBox="0 0 164 164" fill="none" xmlns="http://www.w3.org/2000/svg">
<g id="Group 248">
<path id="Vector" d="M180.143 0H-15.2664V164.877H180.143V0Z" fill="#19002D"/>
<path id="Vector_2" d="M123.352 123.645H107.68L79.1379 68.1119H94.8104L123.352 123.645Z" fill="#E1EAF9"/>
<path id="Vector_3" d="M123.352 68.1119H91.119V80.8844H123.352V68.1119Z" fill="#E1EAF9"/>
<path id="Vector_4" d="M84.4384 108.104C83.5743 110.694 82.3713 113.158 80.8599 115.432C78.1731 119.474 74.5641 122.817 70.3292 125.185L63.6364 112.5C67.0378 110.484 69.5964 107.305 70.8391 103.55C71.4345 101.795 71.7245 99.9522 71.6971 98.0998C71.6696 95.477 71.0192 92.8982 69.7979 90.5768C68.5766 88.2554 66.821 86.2573 64.6776 84.7478C62.3052 83.0853 59.5389 82.0744 56.6536 81.8167C53.7682 81.559 50.8646 82.0631 48.2357 83.2786L41.5246 70.5821C46.9899 67.8864 53.1301 66.8693 59.1695 67.6595C65.2119 68.4494 70.8849 71.0111 75.474 75.0216C80.063 79.0321 83.3636 84.3118 84.9575 90.1958C86.5543 96.0797 86.3742 102.305 84.4384 108.086V108.104Z" fill="#E1EAF9"/>
<path id="Vector_5" d="M87.1528 51.3998C87.1528 57.8654 81.9164 63.107 75.4526 63.107C68.9919 63.107 63.7555 57.8654 63.7555 51.3998C63.7555 44.9342 68.9919 39.6926 75.4526 39.6926C81.9164 39.6926 87.1528 44.9342 87.1528 51.3998Z" fill="#E1EAF9"/>
</g>
</svg>
