<svg width="349" height="191" viewBox="0 0 349 191" fill="none" xmlns="http://www.w3.org/2000/svg">
<mask id="mask0_440_78425" style="mask-type:luminance" maskUnits="userSpaceOnUse" x="-4" y="-4" width="359" height="199">
<path d="M354.073 -3.47559H-3.04361V194.037H354.073V-3.47559Z" fill="white"/>
</mask>
<g mask="url(#mask0_440_78425)">
<path d="M354.073 -3.47583H-3.04355V194.037H354.073V-3.47583Z" fill="white"/>
<path d="M354.073 -1.48047H-3.04355V196.032H354.073V-1.48047Z" fill="#19002D"/>
<path d="M130.112 103.035H125.128L116.051 85.6794H121.036L130.112 103.035Z" fill="#00F5FF"/>
<path d="M130.112 85.6978H119.864V89.6846H130.112V85.6978Z" fill="#00F5FF"/>
<path d="M117.725 98.1885C117.446 98.9932 117.074 99.7613 116.59 100.475C115.735 101.736 114.582 102.779 113.242 103.529L111.122 99.5601C112.201 98.9383 113.019 97.9324 113.41 96.762C113.596 96.2133 113.689 95.6464 113.689 95.0612C113.689 94.2382 113.466 93.4335 113.094 92.702C112.703 91.9705 112.145 91.3487 111.457 90.8732C110.694 90.3611 109.82 90.0319 108.909 89.9588C107.997 89.8856 107.067 90.0319 106.23 90.416L104.091 86.4474C105.821 85.6062 107.774 85.2953 109.708 85.533C111.624 85.7708 113.428 86.5755 114.898 87.8374C116.349 89.0992 117.409 90.7452 117.911 92.574C118.413 94.4028 118.357 96.378 117.725 98.1885Z" fill="#00F5FF"/>
<path d="M151.911 98.445C150.572 99.8166 148.917 100.512 146.945 100.512C144.974 100.512 143.318 99.8166 141.979 98.445C140.64 97.0733 139.97 95.336 139.97 93.2328C139.97 91.1297 140.64 89.3923 141.979 88.0207C143.318 86.6491 144.974 85.9541 146.945 85.9541C148.917 85.9541 150.572 86.6491 151.911 88.0207C153.251 89.3923 153.92 91.1297 153.92 93.2328C153.92 95.336 153.251 97.0733 151.911 98.445ZM144.285 96.2321C144.992 96.9819 145.885 97.366 146.945 97.366C148.005 97.366 148.88 96.9819 149.568 96.2321C150.275 95.464 150.628 94.4581 150.628 93.2145C150.628 91.9709 150.275 90.9834 149.568 90.2153C148.861 89.4472 147.987 89.0631 146.945 89.0631C145.904 89.0631 145.011 89.4472 144.285 90.2153C143.579 90.9651 143.244 91.9709 143.244 93.2145C143.244 94.4764 143.579 95.464 144.285 96.2321Z" fill="#00F5FF"/>
<path d="M158.756 100.292V89.2823H154.757V86.155H166.066V89.2823H162.067V100.292H158.756Z" fill="#00F5FF"/>
<path d="M166.68 95.6469H169.972C169.972 96.2321 170.214 96.7259 170.679 97.1099C171.144 97.494 171.795 97.6768 172.65 97.6768C173.469 97.6768 174.082 97.5306 174.492 97.2562C174.901 96.9819 175.105 96.6161 175.105 96.1589C175.105 95.7749 174.956 95.464 174.64 95.2262C174.343 94.9885 173.803 94.7873 173.059 94.641L170.79 94.2387C169.507 94.0009 168.54 93.5803 167.907 92.9402C167.293 92.3001 166.977 91.404 166.977 90.2884C166.977 89.0448 167.461 88.0024 168.409 87.1794C169.377 86.3564 170.716 85.9541 172.408 85.9541C174.25 85.9541 175.701 86.393 176.723 87.2892C177.746 88.1853 178.267 89.3557 178.267 90.8005H174.975C174.975 90.2153 174.733 89.7398 174.268 89.374C173.803 88.9899 173.171 88.7888 172.39 88.7888C171.683 88.7888 171.162 88.9351 170.79 89.2277C170.418 89.502 170.232 89.8678 170.232 90.3067C170.232 90.6725 170.362 90.9468 170.604 91.148C170.865 91.3308 171.33 91.4954 171.981 91.6052L174.25 92.0075C175.682 92.2635 176.723 92.7207 177.374 93.3608C178.025 94.0009 178.36 94.9336 178.36 96.1406C178.36 97.4025 177.858 98.445 176.854 99.2679C175.849 100.073 174.436 100.475 172.594 100.475C170.753 100.475 169.302 100.018 168.242 99.1033C167.2 98.2072 166.68 97.0551 166.68 95.6469Z" fill="#00F5FF"/>
<path d="M180.648 100.292V86.155H187.325C188.72 86.155 189.855 86.6122 190.729 87.5084C191.603 88.4045 192.05 89.6115 192.05 91.1111C192.05 92.6108 191.622 93.7995 190.729 94.7139C189.855 95.6101 188.72 96.0673 187.325 96.0673H183.94V100.31H180.648V100.292ZM183.922 92.9217H187.102C187.586 92.9217 187.976 92.7571 188.274 92.4279C188.59 92.0987 188.739 91.6415 188.739 91.0928C188.739 90.5442 188.59 90.1053 188.274 89.7761C187.976 89.4469 187.586 89.264 187.102 89.264H183.922V92.9217Z" fill="#00F5FF"/>
<path d="M205.553 98.445C204.214 99.8166 202.559 100.512 200.587 100.512C198.615 100.512 196.96 99.8166 195.621 98.445C194.282 97.0733 193.612 95.336 193.612 93.2328C193.612 91.1297 194.282 89.3923 195.621 88.0207C196.96 86.6491 198.615 85.9541 200.587 85.9541C202.559 85.9541 204.214 86.6491 205.553 88.0207C206.892 89.3923 207.562 91.1297 207.562 93.2328C207.562 95.336 206.892 97.0733 205.553 98.445ZM197.927 96.2321C198.634 96.9819 199.527 97.366 200.568 97.366C201.629 97.366 202.503 96.9819 203.21 96.2321C203.916 95.464 204.27 94.4581 204.27 93.2145C204.27 91.9709 203.916 90.9834 203.21 90.2153C202.503 89.4472 201.629 89.0631 200.568 89.0631C199.508 89.0631 198.634 89.4472 197.927 90.2153C197.22 90.9651 196.886 91.9709 196.886 93.2145C196.886 94.4764 197.22 95.464 197.927 96.2321Z" fill="#00F5FF"/>
<path d="M209.831 100.292V86.155H216.62C218.015 86.155 219.15 86.594 220.024 87.4901C220.898 88.3862 221.344 89.5566 221.344 91.0014C221.344 92.7937 220.675 94.0921 219.336 94.8968C218.722 95.2443 218.052 95.4637 217.345 95.5369L221.772 100.292H217.662L213.551 95.7381H213.142V100.292H209.831ZM213.105 92.8302H216.397C216.88 92.8302 217.271 92.6656 217.569 92.3365C217.885 92.0073 218.034 91.5501 218.034 91.0014C218.034 90.4528 217.885 90.0139 217.569 89.6847C217.271 89.3555 216.88 89.1726 216.397 89.1726H213.105V92.8302Z" fill="#00F5FF"/>
<path d="M226.366 100.292V89.2823H222.349V86.155H233.657V89.2823H229.658V100.292H226.366Z" fill="#00F5FF"/>
<path d="M234.29 95.6469H237.582C237.582 96.2321 237.805 96.7259 238.289 97.1099C238.754 97.494 239.405 97.6768 240.26 97.6768C241.079 97.6768 241.693 97.5306 242.102 97.2562C242.511 96.9819 242.715 96.6161 242.715 96.1589C242.715 95.7749 242.567 95.464 242.25 95.2262C241.953 94.9885 241.432 94.7873 240.67 94.641L238.4 94.2387C237.117 94.0009 236.15 93.5803 235.517 92.9402C234.904 92.3001 234.587 91.404 234.587 90.2884C234.587 89.0448 235.071 88.0024 236.02 87.1794C236.987 86.3564 238.326 85.9541 240.019 85.9541C241.86 85.9541 243.311 86.393 244.334 87.2892C245.357 88.1853 245.877 89.3557 245.877 90.8005H242.604C242.604 90.2153 242.381 89.7398 241.897 89.374C241.432 88.9899 240.8 88.7888 240.019 88.7888C239.312 88.7888 238.791 88.9351 238.419 89.2277C238.047 89.502 237.861 89.8678 237.861 90.3067C237.861 90.6725 237.991 90.9468 238.233 91.148C238.493 91.3308 238.958 91.4954 239.609 91.6052L241.879 92.0075C243.311 92.2635 244.352 92.7207 245.003 93.3608C245.654 94.0009 245.989 94.9336 245.989 96.1406C245.989 97.4025 245.487 98.445 244.482 99.2679C243.478 100.073 242.064 100.475 240.223 100.475C238.382 100.475 236.931 100.018 235.871 99.1033C234.829 98.2072 234.29 97.0551 234.29 95.6469Z" fill="#00F5FF"/>
<path d="M118.599 80.4672C118.599 82.4789 116.925 84.1249 114.879 84.1249C112.833 84.1249 111.159 82.4789 111.159 80.4672C111.159 78.4555 112.833 76.8096 114.879 76.8096C116.925 76.8096 118.599 78.4555 118.599 80.4672Z" fill="#00F5FF"/>
<path d="M379.833 30.5403H278L388.482 193.214" stroke="#00F5FF" stroke-width="11.114"/>
<path d="M-33.6402 162.307H68.1938L-42.2891 -0.366699" stroke="#00F5FF" stroke-width="11.114"/>
<path d="M116.274 36.3926C185.048 36.3926 240.8 -18.4255 240.8 -86.047C240.8 -153.669 185.048 -208.487 116.274 -208.487C47.5006 -208.487 -8.2515 -153.669 -8.2515 -86.047C-8.2515 -18.4255 47.5006 36.3926 116.274 36.3926Z" stroke="#00F5FF" stroke-width="11.114"/>
<path d="M237.173 398.865C305.946 398.865 361.699 344.047 361.699 276.425C361.699 208.804 305.946 153.986 237.173 153.986C168.399 153.986 112.647 208.804 112.647 276.425C112.647 344.047 168.399 398.865 237.173 398.865Z" stroke="#00F5FF" stroke-width="11.114"/>
</g>
</svg>
